<svg width="181" height="78" viewBox="0 0 181 78" fill="none" xmlns="http://www.w3.org/2000/svg">
<path fill-rule="evenodd" clip-rule="evenodd" d="M30.1 25C31.4 25 32.6 25.101 33.7 25.4C34.8 25.6 35.7 26 36.5 26.5C37.3 27 37.9 27.7 38.3 28.601C38.7 29.5 38.9 30.601 38.9 31.801C38.9 33.2 38.6 34.401 37.9 35.301C37.3 36.2 36.3 37 35.1 37.6C36.8 38.1 38.1 38.999 38.9 40.2C39.7 41.4 40.2 42.9 40.2 44.6C40.2 45.999 39.9 47.2 39.4 48.2C38.9 49.2 38.1 50.1 37.2 50.7C36.3 51.301 35.2 51.801 34 52.1C32.8 52.399 31.6 52.6 30.4 52.6H17V25H30.1ZM29.3 36.2C30.4 36.2 31.3 35.9 32 35.4C32.7 34.9 33 34 33 32.9C33 32.3 32.9 31.7 32.7 31.3C32.5 30.9 32.2 30.6 31.8 30.3C31.4 30.1 31 29.9 30.5 29.8C30 29.7 29.5 29.7 28.9 29.7H23.1V36.2H29.3ZM31.3 47.801C30.8 47.9 30.2 48 29.6 48H23.1V40.3H29.7C31 40.3 32.1 40.599 32.9 41.199C33.7 41.9 34.1 42.9 34.1 44.3C34.1 44.999 33.9 45.6 33.7 46.1C33.4 46.6 33.1 46.9 32.7 47.2C32.3 47.5 31.8 47.7 31.3 47.801ZM48.9 47.9C49.7 48.7 50.9 49.1 52.5 49.1C53.6 49.1 54.6 48.8 55.4 48.3C56.2 47.699 56.7 47.1 56.9 46.499H61.8C61 48.899 59.8 50.6 58.2 51.699C56.6 52.699 54.7 53.3 52.4 53.3C50.8 53.3 49.4 52.999 48.1 52.499C46.8 51.999 45.8 51.3 44.9 50.3C44 49.4 43.3 48.3 42.9 46.999C42.4 45.699 42.2 44.3 42.2 42.699C42.2 41.199 42.4 39.8 42.9 38.499C43.4 37.199 44.1 36.1 45 35.1C45.9 34.2 47 33.4 48.2 32.9C49.5 32.4 50.8 32.1 52.4 32.1C54.1 32.1 55.6 32.4 56.9 33.1C58.2 33.8 59.2 34.6 60 35.8C60.8 36.9 61.4 38.199 61.8 39.6C62 41 62.1 42.4 62 44H47.5C47.5 45.6 48.1 47.1 48.9 47.9ZM52.1 36.3C53.4 36.3 54.5 36.7 55.2 37.4C55.9 38.1 56.4 39.1 56.6 40.6H47.6C47.6 40.2682 47.6685 39.9377 47.7488 39.5502C47.7655 39.4695 47.7828 39.3862 47.8 39.3C47.9 38.8 48.1 38.301 48.5 37.9C48.9 37.499 49.3 37.1 49.9 36.8C50.5 36.499 51.2 36.3 52.1 36.3ZM69.8 25V35.4H69.9C70.6 34.2 71.5 33.4 72.6 32.9C73.7 32.4 74.7 32.1 75.8 32.1C77.3 32.1 78.5 32.3 79.4 32.7C80.3 33.1 81.1 33.7 81.6 34.4C82.1 35.1 82.5 36 82.7 37C82.9 38 83 39.101 83 40.4V52.7H77.5V41.4C77.5 39.7 77.2 38.5 76.7 37.7C76.2 36.9 75.3 36.5 74 36.5C72.5 36.5 71.4 37 70.8 37.801C70.1 38.7 69.8 40.2 69.8 42.2V52.7H64.3V25H69.8ZM89.2 33.499C88.3 34.1 87.6 34.7 87 35.6C86.5 36.4 86.1 37.5 86.1 38.7H91.6C91.7 37.7 92.1 36.9 92.7 36.4C93.3 35.9 94.1 35.7 95.2 35.7C95.7 35.7 96.2 35.7 96.6 35.801C97 35.9 97.399 36 97.7 36.2C98 36.4 98.3 36.7 98.5 37C98.7 37.3 98.8 37.8 98.8 38.4C98.8 39 98.7 39.4 98.3 39.7C97.9 40 97.4 40.2 96.8 40.4C96.2 40.5 95.5 40.6 94.7 40.7L92.3 41C91.4072 41.1002 90.6128 41.2978 89.8192 41.4952L89.8 41.5C89 41.7 88.2 42.101 87.6 42.5C87 43 86.5 43.6 86.1 44.3C85.7 44.999 85.5 45.999 85.5 47.1C85.5 48.2 85.7 49 86 49.801C86.4 50.6 86.9 51.2 87.5 51.7C88.2 52.2 88.9 52.601 89.7 52.801C90.6 53.1 91.4 53.2 92.4 53.2C93.6 53.2 94.8 53.1 96 52.7C97.2 52.301 98.2 51.7 99.1 50.801C99.1 51.101 99.1 51.5 99.2 51.801L99.2117 51.8368L99.2233 51.8728L99.2474 51.9493C99.3332 52.2215 99.4308 52.5316 99.6 52.7H105.2C104.899 52.301 104.601 51.601 104.5 50.801C104.4 50 104.3 49.1 104.3 48.2V37.7C104.3 36.5 104 35.5 103.501 34.799C102.9 34.099 102.3 33.498 101.4 33.099C100.601 32.698 99.601 32.399 98.601 32.299L98.3236 32.2737C97.3307 32.1828 96.4154 32.099 95.5 32.099C94.399 32.099 93.3 32.199 92.2 32.399C91.1 32.6 90.1 32.999 89.2 33.499ZM97.899 43.4C97.6 43.5 97.2 43.6 96.799 43.7C96.5844 43.7542 96.3699 43.7793 96.1399 43.8062C95.9411 43.8295 95.7308 43.8541 95.499 43.9C95.2993 43.9501 95.0743 43.975 94.8491 44.0001C94.6243 44.0251 94.3993 44.0501 94.199 44.1L92.999 44.4C92.599 44.5 92.199 44.7 91.999 44.9C91.699 45.1 91.499 45.4 91.299 45.7C91 46.1 91 46.5 91 47C91 47.5 91.1 47.9 91.3 48.2L91.3024 48.2036C91.5016 48.5024 91.7012 48.8018 92 49C92.3 49.2 92.7 49.301 93.1 49.4C93.5 49.499 93.899 49.5 94.399 49.5C95.5 49.5 96.299 49.301 96.899 49C97.5 48.601 97.899 48.2 98.2 47.7C98.5 47.2 98.7 46.7 98.7 46.2C98.8 45.7 98.8 45.301 98.8 45V42.9L98.7914 42.9058C98.4942 43.1039 98.1971 43.302 97.899 43.4ZM112.601 35.4V32.6H107.2V52.8H112.7V42.3C112.7 40.3 113 38.8 113.7 37.9C114.399 37 115.5 36.4 117 36.4C118.4 36.4 119.3 36.9 119.8 37.7C120.3 38.5 120.601 39.7 120.601 41.4V52.7H126.101V40.4C126.101 39.101 126 38 125.8 37C125.5 36 125.101 35.1 124.601 34.4C124.101 33.7 123.4 33.1 122.4 32.7C121.5 32.3 120.3 32.1 118.8 32.1C117.701 32.1 116.501 32.4 115.4 32.9C114.301 33.4 113.4 34.2 112.701 35.4H112.601ZM138.399 36.2C137.5 36.2 136.799 36.4 136.2 36.801C135.6 37.2 135.1 37.7 134.7 38.401C134.3 39.001 134.1 39.701 133.899 40.501C133.7 41.302 133.7 42.001 133.7 42.802C133.7 43.501 133.8 44.302 133.899 45.001C134.1 45.802 134.299 46.401 134.7 47.001C135.1 47.602 135.5 48.102 136.1 48.501C136.7 48.901 137.399 49.102 138.299 49.102C139.6 49.102 140.6 48.702 141.399 48.001C142.1 47.302 142.6 46.302 142.7 45.001H148C147.601 47.701 146.601 49.701 144.899 51.102C143.2 52.501 141 53.202 138.299 53.202C136.799 53.202 135.399 52.902 134.199 52.402C132.898 51.902 131.898 51.202 130.999 50.302C130.1 49.402 129.398 48.302 128.898 47.102C128.398 45.802 128.199 44.501 128.199 43.001C128.199 41.401 128.398 40.001 128.898 38.701C129.398 37.401 129.999 36.201 130.898 35.201C131.798 34.201 132.898 33.501 134.099 32.901C135.398 32.401 136.798 32.101 138.398 32.101C139.599 32.101 140.699 32.301 141.798 32.601C142.897 32.901 143.898 33.401 144.698 34C145.598 34.601 146.298 35.4 146.798 36.4C147.298 37.3 147.599 38.5 147.698 39.8H142.298C142.101 37.4 140.8 36.2 138.399 36.2ZM57.6 26.9H46.4V29.6H57.6V26.9ZM156.3 47.9C157.101 48.7 158.4 49.1 159.9 49.1C161.001 49.1 162.001 48.8 162.8 48.3C163.601 47.699 164.101 47.1 164.3 46.499H169.101C168.3 48.899 167.101 50.6 165.5 51.699C163.899 52.699 162 53.3 159.7 53.3C158.1 53.3 156.7 52.999 155.399 52.499C154.168 52.0401 153.069 51.2848 152.2 50.3C151.3 49.4 150.6 48.3 150.2 46.999C149.7 45.699 149.5 44.3 149.5 42.699C149.5 41.199 149.7 39.8 150.2 38.499C150.682 37.2448 151.394 36.092 152.3 35.1C153.2 34.2 154.3 33.4 155.5 32.9C156.8 32.4 158.2 32.1 159.7 32.1C161.399 32.1 162.899 32.4 164.1 33.1C165.399 33.8 166.399 34.6 167.2 35.8C168 36.9 168.6 38.199 169 39.6C169.399 40.999 169.5 42.499 169.399 44.1H154.899C154.899 45.6 155.5 47.1 156.3 47.9ZM159.6 36.3C160.899 36.3 162 36.7 162.7 37.4C163.3 38.1 163.8 39.1 164.101 40.6H155.101C155.101 40.2705 155.169 39.9423 155.248 39.5584C155.265 39.4751 155.282 39.3892 155.3 39.3C155.399 38.8 155.701 38.301 156 37.9C156.299 37.499 156.799 37.1 157.399 36.8C157.999 36.499 158.7 36.3 159.6 36.3Z" fill="#91B7DC"/>
</svg>
