<svg width="181" height="78" viewBox="0 0 181 78" fill="none" xmlns="http://www.w3.org/2000/svg">
<path fill-rule="evenodd" clip-rule="evenodd" d="M73.9376 49.0045C74.0322 48.8501 74.1304 48.6897 74.2355 48.5217C75.0522 51.4727 75.4553 52.4665 76.4169 53.9089C77.3391 55.2891 78.4631 56.4503 79.9504 57.2012C82.6401 58.5592 85.4192 57.8622 87.1427 55.3665C87.5326 54.8006 87.8755 54.1777 88.1129 53.5331C88.3773 52.8154 88.5893 52.0779 88.8075 51.3187C88.9009 50.9938 88.9954 50.6649 89.0957 50.3319C90.8521 50.882 92.3654 50.5291 93.306 48.5957C94.0607 51.4852 94.6895 52.9209 95.8947 54.5099C96.8811 55.8097 98.0621 56.8635 99.5901 57.4624C101.847 58.3462 104.054 57.8241 105.691 56.0145C106.458 55.1672 106.996 54.1768 107.342 53.0876C107.538 52.4704 107.708 51.845 107.883 51.2008L107.883 51.2008L107.883 51.2007C107.961 50.9135 108.04 50.6227 108.123 50.3271C109.831 50.8461 111.339 50.5584 112.374 48.8057C112.397 48.8612 112.415 48.9027 112.43 48.936L112.43 48.9367L112.431 48.937L112.431 48.9371C112.454 48.9903 112.469 49.0221 112.475 49.0556C112.766 50.6492 113.412 52.1005 114.24 53.4694C115.192 55.0438 116.391 56.3844 118.055 57.196C120.161 58.2233 122.206 58.1737 124.089 56.6429C125.229 55.7167 125.939 54.4751 126.393 53.0863C126.593 52.4757 126.76 51.8533 126.929 51.2206L126.93 51.2198L126.93 51.2196C127.007 50.9322 127.084 50.6427 127.166 50.3512C128.515 50.6285 129.899 50.644 131.277 50.2308C131.303 50.2871 131.325 50.341 131.347 50.3929C131.393 50.5014 131.434 50.6005 131.489 50.6919C131.679 51.0118 131.862 51.3364 132.046 51.6609L132.046 51.661L132.046 51.6611L132.046 51.6613L132.046 51.6615L132.047 51.6619L132.047 51.6623L132.047 51.6625C132.483 52.4326 132.918 53.2027 133.436 53.9116C134.513 55.3839 135.929 56.4326 137.75 56.7818C139.411 57.0997 141.011 56.7639 142.514 56.0766C143.353 55.6934 144.155 55.2288 144.968 54.7584L144.968 54.7584C145.333 54.5468 145.7 54.3341 146.074 54.1271C146.114 54.1647 146.156 54.2046 146.199 54.2463C146.24 54.2865 146.283 54.3284 146.327 54.3715L146.329 54.3727C146.546 54.5849 146.794 54.8263 147.061 55.0429C148.866 56.5054 150.964 57.1945 153.238 57.3572C158.3 57.7202 162.402 55.8761 165.517 51.7872C165.844 51.3572 166.016 50.8692 165.999 50.3292C165.965 49.2619 165.519 48.3629 164.816 47.5998C164.418 47.1664 164.11 47.2122 163.754 47.6842C163.629 47.85 163.508 48.0187 163.386 48.1875L163.386 48.1883C163.212 48.4301 163.038 48.6718 162.853 48.9045C160.973 51.2688 158.683 52.9108 155.592 53.1052C153.836 53.215 152.138 53.0025 150.6 52.0401C150.51 51.9833 150.426 51.9152 150.328 51.8357L150.328 51.8353L150.327 51.8342C150.281 51.7967 150.231 51.7568 150.177 51.7143C151.71 51.281 153.049 50.6385 154.241 49.7106C156.482 47.9646 158.107 45.8045 158.534 42.8779C159.025 39.5088 156.549 36.5048 153.208 36.3866C151.03 36.3098 149.135 37.0537 147.599 38.5735C144.437 41.7037 143.278 45.5278 144.06 49.9449C144.123 50.3079 144.06 50.5163 143.779 50.7513C142.459 51.8536 140.954 52.3461 139.254 52.3086C138.625 52.2946 138.107 52.077 137.687 51.6269C137.421 51.3437 137.149 51.049 136.965 50.7117C136.382 49.6478 135.833 48.5628 135.29 47.4764C135.239 47.3728 135.285 47.1667 135.359 47.0613C135.519 46.834 135.695 46.6185 135.871 46.403L135.871 46.403L135.871 46.4028C135.961 46.2939 136.05 46.1849 136.137 46.0745C137.68 44.1176 139.093 42.0831 139.961 39.7048C140.845 37.2832 141.073 34.7601 141.111 32.2065C141.145 29.7989 140.989 27.4105 140.294 25.091C139.84 23.5721 139.193 22.1553 137.985 21.0829C136.186 19.4859 134.029 19.6685 132.524 21.543C132.325 21.791 132.142 22.0513 131.975 22.3223C131.15 23.6669 130.612 25.1371 130.254 26.6682C128.762 33.0601 128.421 39.4768 129.887 45.9319C129.932 46.1284 129.85 46.4624 129.707 46.5743C129.394 46.8193 129.019 47.0412 128.638 47.1271C128.342 47.1937 128.028 47.1748 127.715 47.1559C127.595 47.1487 127.476 47.1414 127.358 47.139C127.004 47.1314 126.831 46.9961 126.764 46.5828C126.399 44.3087 125.381 42.3546 123.808 40.7038C123.316 40.1875 122.746 39.7587 122.04 39.603C121.712 39.5304 121.353 39.5106 121.022 39.5615C120.38 39.6603 119.994 40.2335 119.969 41.0588C119.935 42.1139 120.242 43.0979 120.641 44.0515C121.31 45.6536 122.114 47.167 123.454 48.3193C123.563 48.4135 123.608 48.6543 123.593 48.8188C123.459 50.3262 122.983 51.7177 122.076 52.9215C121.743 53.364 121.319 53.7611 120.869 54.0814C120.037 54.6741 119.177 54.6208 118.365 53.9988C118.127 53.8141 117.907 53.6054 117.709 53.3759C117.047 52.6128 116.628 51.707 116.276 50.7653C115.536 48.7789 115.358 46.6962 115.282 44.6004C115.275 44.2724 115.347 43.9477 115.493 43.655C117.441 39.8312 119.17 35.9151 120.345 31.767C120.948 29.6377 121.41 27.4812 121.25 25.2407C121.146 23.7851 120.62 22.5323 119.468 21.6098C118.172 20.5715 116.616 20.6638 115.583 21.9642C114.99 22.7081 114.506 23.58 114.146 24.4669C113.128 26.9711 112.732 29.6344 112.416 32.3065C112.047 35.4439 111.929 38.5951 111.958 41.7536C111.96 41.9578 111.9 42.1897 111.795 42.3635C111.388 43.0432 110.972 43.7177 110.555 44.3921L110.555 44.3922L110.555 44.3926L110.554 44.3931L110.553 44.3949L110.553 44.3962C110.301 44.8033 110.05 45.2102 109.801 45.6183C109.674 45.8252 109.543 46.0419 109.476 46.2738C109.238 47.1006 108.92 47.3045 108.104 47.1143C107.89 47.0646 107.782 46.9714 107.746 46.7178C107.446 44.633 106.544 42.8236 105.237 41.2145C104.704 40.5596 104.083 40.0013 103.286 39.6877C101.847 39.1215 100.882 39.8011 100.919 41.3562L100.92 41.4051C100.923 41.5351 100.925 41.6674 100.959 41.789C101.018 42.0083 101.073 42.2297 101.128 42.4512L101.128 42.4513C101.27 43.019 101.411 43.5871 101.629 44.1222C102.272 45.7018 103.083 47.1829 104.401 48.3145C104.511 48.4098 104.562 48.6476 104.548 48.8103C104.412 50.3173 103.942 51.7119 103.032 52.9142C102.689 53.3676 102.25 53.7687 101.791 54.0994C101.007 54.6641 100.176 54.6141 99.395 54.0515C99.1396 53.8652 98.9051 53.6511 98.6954 53.413C98.0006 52.6359 97.5771 51.6994 97.2165 50.7303C96.4399 48.6451 96.2952 46.4557 96.2208 44.2587C96.2154 44.0803 96.3148 43.8878 96.4026 43.718L96.4136 43.6968C98.3852 39.869 100.112 35.9352 101.294 31.7741C101.898 29.645 102.358 27.4886 102.2 25.2483C102.1 23.8098 101.59 22.5634 100.457 21.6427C99.1108 20.5495 97.5543 20.6538 96.4798 22.0209C95.9094 22.7465 95.4508 23.5971 95.0971 24.4577C94.1659 26.7267 93.7679 29.1394 93.4558 31.5623C93.0224 34.9274 92.8708 38.3099 92.9127 41.7018C92.9131 41.732 92.9146 41.7634 92.9162 41.7954L92.9162 41.796C92.9219 41.915 92.9279 42.0403 92.8777 42.1279C92.5258 42.7423 92.1553 43.3451 91.7807 43.9458C91.642 44.1684 91.4986 44.3882 91.3553 44.6079L91.3552 44.6081L91.3551 44.6082L91.355 44.6083L91.3549 44.6085L91.3548 44.6086L91.3547 44.6087C91.1203 44.9681 90.8859 45.3275 90.672 45.6993C90.5708 45.8759 90.5025 46.0714 90.4342 46.2673L90.4341 46.2674C90.3829 46.4144 90.3315 46.5616 90.2661 46.7011C90.0587 47.1439 89.7749 47.214 89.1308 47.135C88.7587 47.0901 88.7223 46.8598 88.6815 46.6022C88.6759 46.5666 88.6702 46.5304 88.6635 46.4941C88.2519 44.2459 87.2706 42.2854 85.6674 40.6849C85.2229 40.2402 84.645 39.8654 84.0602 39.6487C82.7322 39.1565 81.8539 39.8492 81.8674 41.2776C81.8686 41.4519 81.8824 41.6259 81.9085 41.7981C82.2049 43.7071 83.025 45.3894 84.119 46.9394C84.3104 47.2104 84.5396 47.4534 84.7691 47.6968L84.7691 47.6968L84.7692 47.6969C84.9357 47.8735 85.1025 48.0502 85.255 48.238C85.3832 48.3952 85.5112 48.6308 85.495 48.8179C85.3719 50.2634 84.922 51.6061 84.0791 52.7807C83.7502 53.2374 83.358 53.6433 82.9147 53.9857C81.9786 54.7061 81.0147 54.6781 80.1422 53.8818C79.6821 53.4618 79.2856 52.9443 78.9544 52.411C78.6295 51.888 78.3918 51.3014 78.1703 50.7214C77.4195 48.7539 77.2579 46.6819 77.1881 44.6001C77.1796 44.2725 77.2508 43.9479 77.3952 43.655C79.3434 39.8306 81.0714 35.9136 82.2472 31.7661C82.8511 29.6368 83.3109 27.4803 83.1509 25.2398C83.0484 23.801 82.5394 22.5533 81.4023 21.6381C80.0412 20.5428 78.5117 20.658 77.424 22.0246C76.8931 22.6917 76.4591 23.4712 76.1258 24.2627C75.1388 26.606 74.7258 29.1032 74.4024 31.6128C73.9666 34.992 73.826 38.3891 73.8596 41.7954C73.8614 41.9722 73.8095 42.1736 73.7187 42.3226L73.5825 42.547L73.5824 42.5471L73.5823 42.5473L73.5823 42.5474L73.5822 42.5475L73.5821 42.5477L73.582 42.5478C71.9689 45.2049 70.3559 47.8618 68.7169 50.502C68.3994 51.0122 68.0047 51.4903 67.5743 51.9075C66.7998 52.6585 65.751 52.5515 65.1279 51.6607C64.8605 51.2791 64.6645 50.8223 64.535 50.3707C64.1709 49.0986 64.1933 47.7802 64.2236 46.4737C64.2476 45.4446 64.293 44.4158 64.3385 43.387C64.3778 42.4986 64.417 41.6101 64.4424 40.7214C64.4859 39.18 63.9185 38.3437 62.5182 37.7677C61.1793 37.217 60.7249 37.4633 60.4965 38.917C60.0016 42.0694 59.7807 45.2395 59.9624 48.433C59.9717 48.5954 59.9543 48.8042 59.862 48.9191L59.6964 49.1257C59.129 49.8338 58.5606 50.5433 57.9413 51.2033C57.6143 51.5519 57.1872 51.8359 56.7559 52.0426C55.9988 52.4055 55.3001 52.1532 54.8934 51.4102C54.7144 51.0801 54.58 50.7269 54.4938 50.3603C54.1354 48.8432 54.1902 47.3002 54.2702 45.7594C54.2946 45.2905 54.3324 44.8217 54.3701 44.353L54.3702 44.3527C54.4328 43.5749 54.4955 42.7971 54.4968 42.0188C54.5001 40.0266 53.6348 38.9718 51.713 38.5845C50.9234 38.4254 50.1235 38.3195 49.3235 38.2136C48.933 38.1619 48.5424 38.1102 48.1531 38.0524C47.2355 37.9162 47.2327 37.9045 47.0261 37.0555L47.0087 36.9839C46.6188 35.3863 45.8179 34.0811 44.2755 33.4036C42.6192 32.6761 41.0363 33.5666 40.8301 35.3803C40.6056 37.356 41.3409 38.9977 42.7831 40.3073C43.0247 40.5264 43.0364 40.6925 42.9516 40.9646C42.1774 43.4411 41.0148 45.7249 39.7349 47.9676C38.6706 49.8331 37.296 51.3218 35.4278 52.3391C34.906 52.6228 34.6416 52.6182 34.2613 52.1568C33.9247 51.7488 33.6465 51.2852 33.3846 50.8217C33.3027 50.6772 33.2955 50.4264 33.36 50.2676C35.7935 44.2874 36.9924 38.0518 37.0892 31.5918C37.1174 29.6984 37.0275 27.8061 36.461 25.9828C35.9709 24.4041 35.2234 22.9718 33.8518 21.9877C32.215 20.8135 30.2461 21.12 29.0034 22.7084C28.3887 23.4944 28.0047 24.3995 27.7068 25.344C26.5061 29.1513 26.4375 33.0604 26.7264 36.9973C26.7729 37.6282 26.8443 38.2573 26.9162 38.8914C26.9494 39.1845 26.9828 39.4787 27.0138 39.7745C25.4834 39.1425 23.9099 39.0632 22.3609 39.4277C20.32 39.908 19.0252 41.3757 18.1164 43.2079C17.0515 45.3543 16.7856 47.6379 17.1612 49.9976C17.6878 53.3076 19.3666 55.8121 22.368 57.2551C24.9511 58.4973 27.4194 58.2121 29.557 56.2019C30.116 55.6765 30.6099 55.0795 31.0923 54.4964L31.0924 54.4963L31.0924 54.4963L31.0924 54.4963L31.0924 54.4962L31.0925 54.4962L31.0925 54.4962C31.3088 54.2347 31.5228 53.976 31.7394 53.7279C31.9147 53.8705 32.0919 54.0244 32.273 54.1817L32.2731 54.1818L32.2732 54.1819L32.2733 54.1819C32.6822 54.537 33.1112 54.9096 33.5845 55.2099C35.5045 56.4283 37.4977 56.2534 39.2074 54.7515C39.7028 54.3176 40.1695 53.8327 40.5727 53.3097C42.4951 50.8159 44.0564 48.0975 45.2955 45.194C45.6251 44.4216 45.9152 43.6312 46.2098 42.8284L46.2099 42.8283L46.2099 42.8281L46.2104 42.827C46.3459 42.4578 46.4824 42.0859 46.6242 41.7119C46.8723 41.7487 47.1229 41.7833 47.375 41.8182H47.375C47.9462 41.8972 48.5248 41.9773 49.0981 42.0849C49.6979 42.198 49.9452 42.5347 49.9601 43.1567C49.9685 43.4901 49.9497 43.826 49.9152 44.1576C49.7153 46.0864 49.6553 48.0176 49.8606 49.9477C50.0351 51.5915 50.3909 53.1878 51.2912 54.6037C52.2063 56.0425 53.496 56.8379 55.1961 56.9293C56.7118 57.0113 57.9935 56.4149 59.1426 55.4958C59.6375 55.1004 60.1 54.6636 60.5608 54.2284L60.5609 54.2284L60.5613 54.2279C60.7659 54.0347 60.9702 53.8418 61.1769 53.6529C61.2723 53.7948 61.3669 53.9418 61.4627 54.0908C61.6764 54.4232 61.8965 54.7653 62.1471 55.0831C63.5136 56.8172 66.3055 57.8528 68.6572 55.8606C69.3355 55.2861 70.0129 54.676 70.5485 53.9714C71.2979 52.9846 71.9901 51.9528 72.6824 50.921C72.908 50.5848 73.1336 50.2485 73.3611 49.9138C73.557 49.6258 73.7393 49.3281 73.9376 49.0045ZM27.6274 52.731C26.8244 53.8007 25.6579 54.1759 24.3445 54.1442C24.2056 54.1272 24.0659 54.1138 23.9262 54.1005C23.6109 54.0703 23.2955 54.0401 22.9894 53.9689C22.1247 53.769 21.4919 53.2262 21.1601 52.3988C20.249 50.1265 20.0883 47.822 21.1164 45.5482C21.4143 44.889 21.8663 44.2725 22.3552 43.7385C23.8175 42.1404 26.2429 42.347 27.6316 43.7321C27.7536 43.854 27.8246 44.0472 27.8762 44.2197C28.3927 45.9547 28.9036 47.6914 29.4087 49.4299C29.4458 49.5579 29.4863 49.7365 29.4293 49.8318C29.2849 50.0737 29.1432 50.318 29.0014 50.5623C28.5703 51.3053 28.1387 52.0491 27.6274 52.731ZM31.2658 44.597L31.3099 44.5948C31.3498 44.5927 31.3895 44.5907 31.4291 44.5891C31.5295 44.1569 31.6331 43.7254 31.7366 43.2939L31.7367 43.2937C31.9645 42.3442 32.1924 41.3948 32.3865 40.4383C33.1541 36.6572 33.6597 32.845 33.5434 28.9715C33.5072 27.7638 33.3957 26.5609 32.9398 25.4254C32.6802 24.778 32.3697 24.7272 31.9054 25.2452C31.3716 25.8417 31.0997 26.5758 30.8881 27.3347C30.3648 29.2123 30.2602 31.1435 30.2278 33.0778C30.1805 35.8886 30.3864 38.6866 30.7407 41.4717C30.8325 42.1915 30.9624 42.9063 31.0922 43.6211C31.1513 43.9463 31.2103 44.2714 31.2658 44.597ZM135.146 40.2195C134.762 41.0426 134.3 41.8195 133.644 42.5481C133.305 41.025 133.146 39.563 133.195 38.0795C133.287 35.2324 133.443 32.3881 133.968 29.585C134.157 28.5734 134.451 27.5805 134.745 26.5917L134.827 26.3131C134.928 25.9696 135.085 25.5168 135.522 25.5232C135.943 25.5294 136.119 25.9331 136.272 26.284L136.288 26.3186C136.779 27.4371 136.944 28.6354 137.013 29.8382C137.219 33.4484 136.684 36.9309 135.146 40.2195ZM148.336 48.2072L148.502 48.263C148.566 48.2381 148.63 48.2137 148.694 48.1894L148.695 48.1892L148.695 48.189C148.844 48.1328 148.992 48.0766 149.137 48.0134C151.065 47.168 152.683 45.9459 153.61 43.9762C153.866 43.4332 154.006 42.7868 154.019 42.1837C154.041 41.1551 153.199 40.5535 152.213 40.7924C151.465 40.9741 150.869 41.4141 150.358 41.9798C149.375 43.0684 148.797 44.3688 148.554 45.8094C148.461 46.3534 148.425 46.9077 148.39 47.4621C148.374 47.7107 148.358 47.9594 148.336 48.2072ZM79.8365 24.9953C78.5884 26.0251 77.0205 34.2953 77.3382 35.7746C78.5159 33.9442 80.1296 27.0296 79.8365 24.9953ZM98.9187 25.063C97.8073 25.9992 96.094 34.2612 96.4079 35.888C97.8391 32.3446 98.7089 28.7856 98.9187 25.063ZM118.011 25.0709C117.733 28.7728 116.827 32.3232 115.407 35.7487C115.629 32.031 116.307 28.4257 117.791 25.0176L118.011 25.0709Z" fill="#91B7DC"/>
<path d="M60 32.2819C60.0012 30.5081 61.1309 29.1685 62.7587 29.0109C64.2372 28.8678 65.6721 30.1528 65.9379 31.8591C66.0757 32.7438 65.9895 33.5994 65.6252 34.4075C65.1011 35.5702 64.0319 36.1642 62.8599 35.9605C61.1686 35.667 59.9986 34.1619 60 32.2819Z" fill="#91B7DC"/>
</svg>
