<svg width="182" height="78" viewBox="0 0 182 78" fill="none" xmlns="http://www.w3.org/2000/svg">
<path fill-rule="evenodd" clip-rule="evenodd" d="M23.5438 51.4166H29.5505V36.4979H33.5584L34.0891 31.3575H29.5505L29.558 28.7845C29.558 27.4438 29.6816 26.7251 31.5561 26.7251H34.0617V21.5834H30.0531C25.2384 21.5834 23.5445 24.0768 23.5445 28.2709V31.3582H20.5425V36.4986H23.5438V51.4166ZM77.3911 35.6975C75.3511 35.6975 74.8856 36.8466 74.8856 38.2698V39.0695H79.8939V38.2698C79.8939 36.8466 79.4284 35.6975 77.3911 35.6975ZM96.9177 36.2161C95.6927 36.2161 94.8097 36.6282 93.9143 37.0481V46.5496C94.7719 46.6335 95.2636 46.6335 96.0772 46.6335C99.0174 46.6335 99.4205 45.2519 99.4205 43.3228V38.7849C99.4205 37.3603 98.9597 36.2161 96.9177 36.2161ZM41.2246 47.2979C40.0821 47.2979 39.5644 46.7131 39.5644 45.5872C39.5644 44.455 40.1219 44.2127 41.3908 44.2127H44.0707V46.4665C43.9843 46.5072 43.8995 46.5478 43.8156 46.5879L43.8152 46.5881C43.0309 46.9633 42.3317 47.2979 41.2246 47.2979ZM115.912 36.2161C113.869 36.2161 113.161 37.3603 113.161 38.7849V43.9837C113.161 45.4118 113.869 46.5595 115.912 46.5595C117.95 46.5595 118.663 45.4118 118.663 43.9837V38.7849C118.663 37.3603 117.949 36.2161 115.912 36.2161ZM50.0788 51.4554H45.0725L44.8563 50.1562C42.5704 51.4554 40.5305 51.6661 39.1846 51.6661C35.5132 51.6661 33.559 49.1494 33.559 45.669C33.559 41.5629 35.8394 40.0974 39.9187 40.0974H44.0707V39.2097C44.0707 37.1137 43.8366 36.4986 40.6952 36.4986H35.5592L36.0611 31.3582H41.6751C48.5675 31.3582 50.0788 33.5924 50.0788 39.2513V51.4554ZM61.5937 36.2069C63.0926 36.2069 63.9873 36.3274 67.1026 36.8755V31.8641C64.3739 31.2335 62.5962 31.068 61.0938 31.068C54.6449 31.068 52.0817 34.5541 52.0817 39.5852V43.1861C52.0817 48.2131 54.6449 51.6928 61.0938 51.6928C62.5962 51.6928 64.3739 51.528 67.1026 50.9002V45.886C63.9873 46.4362 63.0926 46.5588 61.5937 46.5588C58.9014 46.5588 58.0877 45.9466 58.0877 43.6004V39.1625C58.0877 36.8164 58.9014 36.2069 61.5937 36.2069ZM85.8999 43.1861H74.8849V43.6004C74.8849 45.9466 75.6993 46.5588 78.3909 46.5588C80.8106 46.5588 82.2875 46.4362 85.3973 45.886V50.9002C82.3981 51.528 80.8353 51.6928 77.8931 51.6928C71.4435 51.6928 68.8789 48.2131 68.8789 43.1861V39.0688C68.8789 34.6703 70.7816 31.068 77.3904 31.068C83.9993 31.068 85.8999 34.6287 85.8999 39.0688V43.1861ZM95.874 51.6837C104.072 51.6837 105.426 48.1398 105.426 43.2813H105.425V38.2705C105.425 33.8312 104.425 31.0687 98.4194 31.0687C96.8909 31.0687 95.2114 31.3202 93.9137 31.8148V22.0998L87.909 23.1277V50.9009C91.1767 51.4166 92.9132 51.6837 95.874 51.6837ZM124.674 43.3869C124.674 47.5783 122.988 51.6435 115.932 51.6435C108.873 51.6435 107.155 47.5783 107.155 43.3869V39.34C107.155 35.1466 108.873 31.0806 115.932 31.0806C122.988 31.0806 124.674 35.1466 124.674 39.34V43.3869ZM135.167 51.6435C142.221 51.6435 143.91 47.5783 143.91 43.3869V39.34C143.91 35.1466 142.221 31.0806 135.167 31.0806C128.107 31.0806 126.389 35.1466 126.389 39.34V43.3869C126.389 47.5783 128.107 51.6435 135.167 51.6435ZM163.65 51.4166H157.141L151.636 41.9877V51.4166H145.63V23.127L151.636 22.0991V40.3109L157.141 31.3582H163.65L157.64 41.1282L163.65 51.4166ZM132.398 38.7849C132.398 37.3603 133.106 36.2161 135.146 36.2161C137.183 36.2161 137.904 37.3603 137.904 38.7849V43.9837C137.904 45.4118 137.183 46.5595 135.146 46.5595C133.106 46.5595 132.398 45.4118 132.398 43.9837V38.7849ZM167.078 47.8981C168.09 47.8981 168.895 48.7443 168.895 49.8011C168.895 50.8741 168.089 51.7111 167.071 51.7111C166.057 51.7111 165.235 50.8741 165.235 49.8011C165.235 48.7443 166.057 47.8981 167.071 47.8981H167.078ZM165.589 49.8011C165.589 48.9134 166.256 48.1941 167.071 48.1941H167.078C167.901 48.1941 168.558 48.9141 168.558 49.8096C168.558 50.7051 167.901 51.4237 167.078 51.4152C166.256 51.4152 165.589 50.7051 165.589 49.8011ZM166.725 50.9087H166.396V48.7852L166.412 48.7829C166.579 48.759 166.741 48.7359 166.981 48.7359C167.294 48.7359 167.498 48.8035 167.624 48.8958C167.746 48.9895 167.811 49.1325 167.811 49.3347C167.811 49.6151 167.631 49.7835 167.409 49.8519V49.8681C167.59 49.9026 167.713 50.0703 167.754 50.3824C167.803 50.7128 167.853 50.8389 167.885 50.908H167.54C167.491 50.8389 167.441 50.6452 167.399 50.3655C167.351 50.0956 167.218 49.9942 166.955 49.9942H166.726V50.9087H166.725ZM166.964 49.7335H166.725V49.0134C166.782 49.0057 166.856 48.9972 166.964 48.9972C167.334 48.9972 167.465 49.1825 167.465 49.3685C167.465 49.6313 167.235 49.7335 166.964 49.7335Z" fill="#91B7DC"/>
</svg>
