<svg width="181" height="78" viewBox="0 0 181 78" fill="none" xmlns="http://www.w3.org/2000/svg">
<path fill-rule="evenodd" clip-rule="evenodd" d="M68.5 53C74.8366 53 80 47.9089 80 41C80 34.0424 74.8366 29 68.5 29C62.1634 29 57 34.0424 57 41C57 47.9089 62.1634 53 68.5 53ZM68.5 33.7286C71.9733 33.7286 74.9658 36.6826 74.9658 41C74.9658 45.2687 71.9733 48.2714 68.5 48.2714C65.0267 48.2714 62.0342 45.2741 62.0342 41C62.0342 36.6826 65.0267 33.7286 68.5 33.7286Z" fill="#91B7DC"/>
<path fill-rule="evenodd" clip-rule="evenodd" d="M92.5 53C98.8366 53 104 47.9089 104 41C104 34.0424 98.8366 29 92.5 29C86.1634 29 81 34.0478 81 41C81 47.9089 86.1634 53 92.5 53ZM92.5 33.7286C95.9733 33.7286 98.9658 36.6826 98.9658 41C98.9658 45.2687 95.9733 48.2714 92.5 48.2714C89.0267 48.2714 86.0342 45.2741 86.0342 41C86.0342 36.6826 89.0267 33.7286 92.5 33.7286Z" fill="#91B7DC"/>
<path fill-rule="evenodd" clip-rule="evenodd" d="M130 50.7879V29.7146H124.996V31.6256H124.813C123.628 30.244 121.356 29 118.495 29C112.496 29 107 34.1558 107 40.7833C107 47.3631 112.496 52.4766 118.495 52.4766C121.361 52.4766 123.633 51.2326 124.813 49.8087H124.996V51.4973C124.996 55.9914 122.546 58.3788 118.592 58.3788C115.368 58.3788 113.367 56.1238 112.55 54.2128L107.963 56.0814C109.283 59.194 112.782 63 118.597 63C124.775 63 130 59.4587 130 50.7879ZM118.965 33.6265C122.552 33.6265 125.37 36.6491 125.37 40.7833C125.37 44.8751 122.552 47.8554 118.965 47.8554C115.33 47.8554 112.285 44.8751 112.285 40.7833C112.285 36.6491 115.33 33.6265 118.965 33.6265Z" fill="#91B7DC"/>
<path d="M138 17V52H133V17H138Z" fill="#91B7DC"/>
<path fill-rule="evenodd" clip-rule="evenodd" d="M162.774 47.6817L158.709 44.9549C157.353 46.9567 155.504 48.2768 152.836 48.2768C150.174 48.2768 148.276 47.0487 147.055 44.6411L163 37.9973L162.457 36.6339C161.467 33.9558 158.44 29 152.25 29C146.103 29 141 33.8638 141 41C141 47.7304 146.06 53 152.836 53C158.3 53 161.462 49.6348 162.774 47.6817ZM156.853 36.1849L146.195 40.6375C146.06 36.0063 149.766 33.642 152.428 33.642C154.503 33.642 156.267 34.6862 156.853 36.1849Z" fill="#91B7DC"/>
<path d="M36.7376 37.9916V32.9368H53.7479C53.9142 33.8178 54 34.8599 54 35.9879C54 39.7803 52.9647 44.4698 49.6281 47.811C46.3827 51.1951 42.236 53 36.743 53C26.5615 53 18 44.6954 18 34.5C18 24.3046 26.5615 16 36.743 16C42.3755 16 46.388 18.2131 49.4028 21.0977L45.8409 24.6645C43.679 22.634 40.7501 21.0547 36.7376 21.0547C29.3026 21.0547 23.4877 27.0549 23.4877 34.5C23.4877 41.9451 29.3026 47.9453 36.7376 47.9453C41.5601 47.9453 44.3067 46.0061 46.0662 44.2442C47.4931 42.8153 48.4318 40.7741 48.802 37.9862L36.7376 37.9916Z" fill="#91B7DC"/>
</svg>
