<svg width="181" height="78" viewBox="0 0 181 78" fill="none" xmlns="http://www.w3.org/2000/svg">
<path fill-rule="evenodd" clip-rule="evenodd" d="M158.225 50.7103C158.59 50.6825 162.488 50.1376 163.685 49.8601C163.982 49.7915 164.087 49.5385 163.921 49.2879C163.749 49.0263 163.505 48.6406 163.205 48.168L163.205 48.1677C162.342 46.807 161.022 44.726 159.657 42.8113C158.575 41.2943 157.455 39.8941 156.638 38.8719L156.638 38.8717L156.638 38.8716C156.177 38.2955 155.812 37.8394 155.604 37.5501C155.464 37.355 155.471 37.163 155.624 37.0116C156.722 35.9241 161.312 31.3657 163.037 29.4832C163.706 28.7509 163.304 28.4359 162.737 28.2648C161.641 27.9338 159.868 27.5212 158.859 27.3058C158.434 27.2148 157.922 27.2467 157.551 27.6338C155.825 29.2636 150.559 34.617 148.987 36.2173C148.704 36.506 148.539 36.4419 148.538 36.0293C148.525 32.9441 148.465 19.7348 148.356 17.5622C148.349 17.2749 148.007 17.0568 147.815 17.0465C146.827 16.9942 144.33 16.9791 143.345 17.0376C143.07 17.0692 142.806 17.3538 142.782 17.5944C142.555 21.0685 142.879 46.5715 143.013 50.139C143.023 50.397 143.213 50.5971 143.455 50.6116C144.436 50.6692 146.865 50.6654 147.998 50.6438C148.556 50.6438 148.625 50.2466 148.625 50.2466L148.709 43.4032C148.709 43.4032 148.766 43.0988 148.859 42.9983C149.259 42.5624 150.365 41.362 150.836 40.8981C150.949 40.7866 151.128 40.7946 151.243 40.9521C151.59 41.4251 152.332 42.556 153.198 43.8755L153.199 43.8769C153.734 44.6923 154.316 45.5796 154.882 46.4282C156.125 48.2933 157.292 49.9667 157.552 50.3395L157.601 50.4094C157.806 50.705 158.045 50.7168 158.225 50.7112V50.7103H158.225ZM79.181 26.864C73.4526 26.864 70.3004 29.9218 70.3004 34.3008H70.301C70.301 38.8445 73.8885 40.3333 78.3477 41.1841C81.1437 41.7178 82.8995 42.4552 82.9234 43.7173C82.9514 45.15 81.6116 46.0005 79.3972 46.0549C79.2081 46.0599 79.0156 46.0588 78.8213 46.052C76.3594 45.9651 74.2237 44.6553 72.926 43.8385C72.5546 43.6053 71.8401 43.6647 71.5693 44.0389C71.0824 44.6213 70.4618 45.7183 70.0942 46.6755C69.7729 47.419 70.3722 48.0373 70.4259 48.084C72.0002 49.4593 74.9382 50.8767 79.0795 50.9615C85.3613 51.0747 88.5675 47.3818 88.5675 43.2956C88.5675 38.4839 85.0757 37.1133 80.4604 36.3124C77.9778 35.8804 75.9285 35.3411 75.9687 33.8496C75.9764 33.6191 76.0235 33.3917 76.1079 33.1775C76.5388 32.0457 77.7625 31.5306 79.2271 31.4975C79.6506 31.4881 80.0743 31.5066 80.4954 31.5531C82.094 31.7229 83.8287 32.6151 84.941 33.1871L85.0725 33.2547C85.3771 33.411 85.9717 33.4686 86.2045 33.0313C86.6045 32.2806 87.1621 31.1251 87.4661 30.3568C87.7033 29.6434 87.3076 29.2598 87.0859 29.1017C85.5364 27.9944 82.6763 26.864 79.181 26.864ZM104.701 43.9375C104.784 41.4483 107.667 40.5777 110.812 40.536L110.812 40.5354C111.655 40.57 112.149 40.6581 112.817 40.9433C112.951 41.0003 113.257 41.2967 113.261 41.4533C113.277 42.1892 113.237 43.9109 112.972 44.371C112.257 45.6125 110.632 46.5481 108.502 46.7559C106.282 46.883 104.7 45.9128 104.701 43.9375ZM100.349 30.506C101.819 29.1732 104.735 27.0987 109.381 27.208C115.513 27.3371 118.753 30.2489 119.054 37.2144C119.174 39.9746 118.988 47.4808 118.93 49.8344L118.923 50.0953C118.916 50.3817 118.821 50.5797 118.439 50.587C117.43 50.6281 115.097 50.6119 114.025 50.5977C113.484 50.5711 113.421 50.2992 113.414 50.0146L113.411 49.9011L113.404 49.6425C113.398 49.4006 113.389 49.0953 113.382 48.8263C113.376 48.5875 113.155 48.5943 113.098 48.6555C111.66 50.2111 109.304 50.9624 106.799 50.9624C102.992 50.9624 99.1959 48.6936 99.2076 44.2008C99.2193 39.5995 102.44 37.3299 105.979 36.7947C108.245 36.4531 110.799 36.7569 112.733 37.5353C112.856 37.5855 113.109 37.5128 113.111 37.3352C113.119 36.7489 113.091 35.6316 112.98 35.102C112.696 33.7526 111.585 32.6669 109.25 32.3743C108.769 32.3143 108.285 32.2945 107.8 32.3335C106.133 32.4663 104.16 33.6633 103.106 34.3029C102.987 34.3751 102.88 34.4402 102.786 34.4959C102.569 34.6247 102.228 34.5304 102.118 34.3865C101.578 33.6802 100.221 31.6145 100.114 31.2844C100.008 30.9552 100.158 30.678 100.348 30.5048L100.349 30.506ZM132.622 27.1929C125.454 27.2405 121.04 32.6542 121.076 39.0714L121.077 39.0723C121.113 45.5123 124.973 51.0549 132.755 50.9996C136.472 50.9783 139.281 49.4097 140.735 47.5458C140.861 47.3839 141.124 46.9808 140.773 46.5688C140.237 45.8274 139.27 44.7502 138.596 44.0525C138.253 43.7806 137.942 43.6476 137.641 43.9133C136.684 44.7889 134.905 45.8578 133.069 45.8111C129.557 45.7269 127.098 43.4038 127.071 39.1766C127.043 34.7716 129.61 32.3773 133.057 32.3767C134.958 32.3767 136.889 33.2151 137.905 33.9007C137.957 33.9358 138.008 33.9725 138.058 34.0085C138.36 34.2254 138.627 34.4173 138.876 34.0934C139.558 33.2068 140.514 31.6423 140.893 30.8326C140.973 30.6035 141.033 30.4135 140.917 30.186C140.344 29.2173 137.095 27.1634 132.622 27.1929ZM96.0239 50.6937C94.8715 50.6952 92.2705 50.6982 91.9276 50.6866H91.9282C91.4961 50.6719 91.2773 50.4668 91.2309 50.043C91.1842 49.6198 91.0354 27.2724 91.256 17.5793C91.2616 17.4049 91.3654 17.2693 91.5416 17.2229C92.4426 16.9841 95.2534 16.9528 96.2425 17.087C96.4616 17.1165 96.599 17.2386 96.6118 17.5636C96.7665 21.3242 96.8712 45.1391 96.6264 50.1411C96.6136 50.4038 96.412 50.7014 96.0239 50.6937Z" fill="#91B7DC"/>
<path d="M21.6757 40.9999C20.0644 41.0125 18.6995 40.0301 18.1962 38.4967C18.1775 38.4388 18.1601 38.3805 18.144 38.3218C17.5956 36.3582 18.659 34.3039 20.565 33.6462L51.1369 23.167C51.4999 23.0595 51.8755 23.0034 52.2534 23.0001C53.9075 22.9869 55.31 23.9909 55.8256 25.5567L55.8713 25.7079C56.4432 27.7532 55.0223 29.5788 53.3198 30.1639C53.3186 30.1648 53.0089 30.2719 22.9175 40.7835C22.5175 40.923 22.0983 40.9961 21.6757 40.9999Z" fill="#91B7DC"/>
<path d="M26.6811 55.9994C25.0616 56.0113 23.6957 55.0506 23.1997 53.5514C23.1809 53.4944 23.1633 53.4369 23.1471 53.3791C22.5925 51.4081 23.6519 49.3491 25.5591 48.6958L56.0486 38.2064C56.4426 38.0724 56.8494 38.004 57.2586 38.0001C58.8824 37.9876 60.3092 38.9972 60.8125 40.5133L60.8593 40.6711C61.1539 41.719 60.9798 42.8968 60.3943 43.8263C59.9579 44.5174 58.5815 45.1257 58.5815 45.1257L27.9762 55.7747C27.5588 55.9185 27.1218 55.9945 26.6811 56V55.9994Z" fill="#91B7DC"/>
<path d="M52.2237 55.9998C50.5714 56.0155 49.0967 54.978 48.5706 53.4298L38.2002 22.9826L38.1484 22.8117C37.5865 20.8701 38.667 18.8448 40.6037 18.1996C40.9912 18.0708 41.3918 18.0036 41.7952 18.0001C42.3943 17.9957 42.9741 18.1292 43.5202 18.3958C44.4287 18.8399 45.1206 19.6238 45.4425 20.5737L55.812 51.0182L55.8422 51.116C56.4246 53.1319 55.3464 55.1584 53.4098 55.8036C53.0272 55.9299 52.627 55.9961 52.2237 55.9998Z" fill="#91B7DC"/>
<path d="M37.2143 60.9998C35.5621 61.0154 34.0876 59.9769 33.562 58.4275L23.2008 27.9792C22.8765 27.0305 22.9472 25.9932 23.3971 25.0961C23.847 24.1989 24.6393 23.5157 25.5992 23.197C25.982 23.0704 26.3826 23.004 26.7863 23.0002C28.4379 22.9841 29.912 24.0218 30.4377 25.5704L40.7992 56.0199C41.1236 56.9691 41.0528 58.0069 40.6023 58.9043C40.1518 59.8017 39.3587 60.4849 38.3982 60.803C38.016 60.9297 37.6161 60.996 37.2131 60.9995H37.2143V60.9998Z" fill="#91B7DC"/>
<path d="M47.2232 49L54 46.6559L51.7846 40L45 42.3195L47.2232 49Z" fill="#91B7DC"/>
<path d="M32.2351 54L39 51.6693L36.7716 45L30 47.3074L32.2351 54Z" fill="#91B7DC"/>
<path d="M42.207 34L49 31.6378L46.8056 25L40 27.3223L42.207 34Z" fill="#91B7DC"/>
<path d="M27.2272 39L34 36.6598L31.7853 30L25 32.3004L27.2272 39Z" fill="#91B7DC"/>
</svg>
