<svg width="181" height="78" viewBox="0 0 181 78" fill="none" xmlns="http://www.w3.org/2000/svg">
<path d="M91.6189 61.3C82.7199 61.4 73.0199 61.2 63.3199 60.6C62.3199 60.5 61.7199 61 61.1199 61.6C58.6199 64.401 56.1199 67.201 53.5199 70C53.1199 70.4 52.7199 71.2 52.0199 70.9C51.3199 70.599 51.6199 69.799 51.6199 69.2C51.6199 66.9 51.5199 64.5 51.6199 62.2C51.7199 60.4 51.3199 59.5 49.2199 59.5C46.7199 59.4 44.1199 59.1 41.6199 58.6C33.0199 56.6 27.2199 51.901 26.4199 42.1C26.0199 37.8 25.7199 33.6 26.4199 29.3C27.8199 20.5 32.9199 15.5 41.7199 14C54.5199 11.9 67.4199 11.2 80.3199 11C93.8199 10.8 107.32 11.2 120.82 11.9C127.32 12.2 133.82 13.1 140.22 14.4C147.919 16 153.118 21.9 153.82 29.9C154.22 34.5 154.32 39.1 153.619 43.7C152.721 49.8 149.32 54.099 143.721 56.599C138.821 58.7 133.619 59.4 128.42 59.799C116.32 60.7 104.42 61.4 91.6189 61.3Z" fill="#91B7DC"/>
<path fill-rule="evenodd" clip-rule="evenodd" d="M52.8001 24.7C52.6908 24.7273 52.5441 24.7173 52.3886 24.7067C51.9753 24.6784 51.5001 24.646 51.5001 25.3C51.5001 25.7666 51.9236 25.8098 52.347 25.853C52.468 25.8654 52.589 25.8777 52.7001 25.9C58.4001 26.8 61.1001 29.5 61.8001 35.3C61.8253 35.4258 61.8314 35.5707 61.8377 35.7186V35.7186C61.8564 36.1583 61.8763 36.6251 62.4001 36.7C63.0716 36.7 63.0385 36.1363 63.0106 35.6596C63.0053 35.5683 63.0001 35.4803 63.0001 35.4C63.1001 29.9 58.3001 24.9 52.8001 24.7ZM58.6001 48.2C60.4001 48.2 62.5001 46.5 63.1001 44.8C63.6401 43.36 62.7221 42.649 61.8041 41.938C61.7021 41.859 61.6001 41.78 61.5001 41.7C61.0025 41.2735 60.4545 40.8975 59.9277 40.5362L59.9277 40.5362L59.9276 40.5361C59.7133 40.3891 59.5025 40.2446 59.3001 40.1C57.8001 39 56.4001 39 55.3001 40.7C54.7001 41.7 53.8001 41.7 52.9001 41.3C50.4001 40.1 48.4001 38.4 47.2001 35.8C46.7001 34.7 46.7001 33.6 47.9001 32.8C48.5001 32.4 49.2001 31.9 49.1001 30.9C49.0001 29.7 46.1001 25.6 44.9001 25.2C44.4001 25 43.9001 25 43.4001 25.2C40.7001 26.1 39.5001 28.4 40.6001 31C43.8001 39 49.6001 44.5 57.4001 47.9C57.6844 48.0137 57.9686 48.0627 58.1978 48.1023C58.3717 48.1323 58.5138 48.1568 58.6001 48.2ZM94.3001 28V36.5V45.5C94.3001 46.7 94.5991 47.7 95.7001 48.2C96.8001 48.7 97.9001 48.6 98.6001 47.6C99.0704 46.9416 99.2752 47.0794 99.798 47.4309L99.8179 47.4443L99.9011 47.5C103.5 49.7 107.5 48.6 109.6 45C111.701 41.4 111.5 37.8 109.6 34.2C108 31.2 104.8 29.9 101.5 30.9C99.1001 31.6 99.1001 31.6 99.1001 29V27.9C99.1001 26.2 98.6001 24.9 96.8001 24.9C94.9011 24.9 94.3001 26.3 94.3001 28ZM106.2 39.6C106.2 36.9 104.7 34.9 102.7 34.8C100.6 34.7 99.0001 36.6 99.0001 39.3C99.0001 41.901 100.5 44 102.5 44.1C104.6 44.3 106.2 42.3 106.2 39.6ZM80.5001 28.4C79.2001 32 77.9001 35.5 76.3001 39.7C75.6886 38.0094 75.103 36.4095 74.5387 34.8675L74.5381 34.866L74.538 34.8658C73.5336 32.1214 72.5963 29.5607 71.7001 27C71.1001 25.5 70.3001 24.4 68.5001 25C66.7001 25.6 66.4001 27 67.0001 28.6C68.1501 31.55 69.3251 34.525 70.5001 37.5C71.6751 40.475 72.8501 43.45 74.0001 46.4C74.4001 47.599 75.1001 48.4 76.5001 48.4C77.7001 48.3 78.4001 47.5 78.8001 46.5C79.5 44.8001 80.2 43.0003 80.8999 41.2005L80.9001 41.2C81.8309 38.6986 82.7954 36.231 83.7545 33.7776L83.7546 33.7773L83.755 33.7764C84.4444 32.0127 85.131 30.2563 85.8001 28.5C86.3001 26.9 86.1001 25.6 84.4001 25C82.8001 24.4 81.8001 25.2 81.2001 26.6C80.9001 27.2 80.7001 27.8 80.5001 28.4ZM122.1 41.1H117.8C116.7 41.1 116.6 41.6 117.1 42.4C118 44.1 120.6 44.8 122.8 44C123.397 43.7762 123.938 43.4967 124.506 43.2032L124.507 43.2031C124.7 43.1031 124.897 43.0015 125.1 42.9C126.201 42.299 127.201 42.4 127.901 43.5C128.701 44.7 128.201 45.7 127.201 46.4C124 48.6 120.5 49.3 116.9 47.8C113.4 46.3 111.9 43.3 111.9 39.6C111.8 34.8 115.1 31 119.4 30.5C123.799 30.1 127.7 33.1 128.5 37.6C129 40.1 128.3 41 125.7 41.1H122.1ZM120.414 37.9213C120.27 37.9105 120.13 37.9 120 37.9C119.8 37.9 119.6 37.925 119.4 37.95C119.2 37.975 119 38 118.8 38C118.577 37.968 118.333 37.9973 118.095 38.0258C117.587 38.0867 117.105 38.1445 116.901 37.6C116.6 36.7 117.3 36 117.901 35.4C119.1 34.3 120.401 34.2 121.8 34.9C122.8 35.4 123.8 36.3 123.5 37.5C123.364 38.1109 122.768 38.0307 122.148 37.9474C121.855 37.9079 121.557 37.8678 121.3 37.9C121.03 37.9675 120.714 37.9438 120.414 37.9213Z" fill="white"/>
<path fill-rule="evenodd" clip-rule="evenodd" d="M52.8001 24.7C58.3001 24.9 63.1001 29.9 63.0001 35.4C63.0001 35.4803 63.0053 35.5683 63.0106 35.6596C63.0386 36.1363 63.0716 36.7 62.4001 36.7C61.7322 36.7 61.7613 36.1424 61.7892 35.6091C61.7947 35.5036 61.8001 35.3991 61.8001 35.3C61.1001 29.5 58.4001 26.8 52.7001 25.9C52.589 25.8777 52.468 25.8654 52.347 25.853C51.9236 25.8098 51.5001 25.7666 51.5001 25.3C51.5727 24.6464 52.0145 24.6784 52.4042 24.7066C52.5511 24.7172 52.6906 24.7273 52.8001 24.7ZM58.6001 48.2C58.4812 48.1599 58.3465 48.1357 58.1961 48.1088C57.9672 48.0677 57.7019 48.0201 57.4001 47.9C49.5001 44.5 43.8001 39 40.6001 31C39.5001 28.3 40.6001 26.1 43.4001 25.2C43.9001 25 44.4001 25 44.9001 25.2C46.1001 25.6 49.0001 29.7 49.1001 30.9C49.1929 31.735 48.597 32.2257 48.0312 32.6916C47.9872 32.7278 47.9434 32.7639 47.9001 32.8C46.7001 33.6 46.7001 34.6 47.2001 35.8C48.4001 38.4 50.3001 40.2 52.9001 41.3C53.8001 41.7 54.7001 41.7 55.3001 40.7C56.4001 39 57.8001 39.1 59.3001 40.1C60.1001 40.6 60.8001 41.1 61.5001 41.7C61.6252 41.8 61.7534 41.8969 61.8808 41.9932L61.8808 41.9933L61.8809 41.9933L61.8809 41.9934C62.7722 42.6671 63.625 43.3118 63.1001 44.8C62.5001 46.501 60.4001 48.2 58.6001 48.2ZM130.1 39.3V33.3C130.1 32.2 130.5 31.4 131.5 30.9C132.6 30.4 133.7 30.5 134.4 31.4C134.964 32.2454 135.262 31.9437 135.71 31.4895C135.739 31.4602 135.769 31.4303 135.799 31.4C136.499 30.8 137.4 30.5 138.4 30.6C139.5 30.8 140.2 31.4 140.4 32.5C140.599 33.6 140.2 34.5 139.299 34.7C135.199 35.7 134.599 38.5 134.999 42.099C135.099 43.4 135.099 44.7 134.899 45.9C134.699 47.4 133.798 48.299 132.298 48.2C130.899 48.099 130.198 47.099 130.098 45.7C130.1 43.7 130.1 41.5 130.1 39.3ZM87.5001 34.4V40.1V45.701C87.5001 47.3 88.2001 48.3 89.8001 48.401C91.4001 48.401 92.2001 47.401 92.2001 45.8V34.3C92.2001 32.8 91.5001 31.8 89.9001 31.8C88.2001 31.8 87.5001 32.8 87.5001 34.4ZM90.1001 30.2C91.7011 30.1 92.4011 29.1 92.6001 27.6C92.4001 26 91.5001 25.1 90.1001 24.9C88.7001 24.8 87.4001 26.1 87.4001 27.6C87.4001 29.1 88.6001 30.3 90.1001 30.2Z" fill="white"/>
<path d="M60.2001 34.4C60.1001 34.8 60.4001 35.5 59.7001 35.6C58.8001 35.7 59.0001 34.9 58.9001 34.4C58.3001 30.9 57.1001 29.6 53.5001 28.8C53.0001 28.7 52.2001 28.8 52.3001 28C52.4001 27.2 53.2001 27.5 53.7001 27.6C57.3001 28 60.2001 31 60.2001 34.4Z" fill="white"/>
<path d="M57.5 33.8C57.5 34.2 57.5 34.7 56.9 34.8C56.5 34.8 56.3 34.5 56.2 34.1C56.1 32.6 55.3 31.8 53.8 31.6C53.4 31.5 52.9 31.4 53.1 30.8C53.2 30.4 53.6 30.4 54 30.4C55.7 30.3 57.5 32.1 57.5 33.8Z" fill="white"/>
</svg>
