<svg width="50" height="50" viewBox="0 0 50 50" fill="none" xmlns="http://www.w3.org/2000/svg">
<rect width="50" height="50" rx="19" fill="#FAB005"/>
<path d="M35.625 23.75H33.75V18.75C33.75 17.375 32.625 16.25 31.25 16.25H26.25V14.375C26.25 12.65 24.85 11.25 23.125 11.25C21.4 11.25 20 12.65 20 14.375V16.25H15C13.625 16.25 12.5125 17.375 12.5125 18.75V23.5H14.375C16.2375 23.5 17.75 25.0125 17.75 26.875C17.75 28.7375 16.2375 30.25 14.375 30.25H12.5V35C12.5 36.375 13.625 37.5 15 37.5H19.75V35.625C19.75 33.7625 21.2625 32.25 23.125 32.25C24.9875 32.25 26.5 33.7625 26.5 35.625V37.5H31.25C32.625 37.5 33.75 36.375 33.75 35V30H35.625C37.35 30 38.75 28.6 38.75 26.875C38.75 25.15 37.35 23.75 35.625 23.75Z" fill="white"/>
</svg>
