<svg width="92" height="90" viewBox="0 0 92 90" fill="none" xmlns="http://www.w3.org/2000/svg">
<g clip-path="url(#clip0)">
<path d="M35.7624 43.3151L44.8403 51.9802L83.1746 88.5661C84.181 89.5289 85.472 90.0103 86.7631 90.0103C88.1761 90.0103 89.5891 89.4367 90.6158 88.2998C92.6388 86.0669 92.3744 82.5743 90.0465 80.6692L44.8403 43.8272L39.8591 39.7712L35.7624 43.3151Z" fill="url(#paint0_linear)"/>
<path d="M45.2367 52.4206L54.1723 60.9423L54.9957 52.185L50.106 48.2007L45.2367 52.4206Z" fill="#3A81D6" fill-opacity="0.8"/>
<path d="M-1.14441e-05 29.9078C-1.14441e-05 46.4288 13.2965 59.8259 29.6834 59.8259C40.0116 59.8259 49.1098 54.5101 54.4264 46.4391C57.5472 41.7071 59.3669 36.0225 59.3669 29.9078C59.3669 13.3868 46.0703 0 29.6834 0C22.2829 0 15.5228 2.72448 10.3282 7.23114C4.00522 12.7211 -1.14441e-05 20.8433 -1.14441e-05 29.9078Z" fill="url(#paint1_linear)"/>
<path d="M29.6834 53.2093C16.9109 53.2093 6.55677 42.7768 6.55677 29.9078C6.55677 17.0387 16.9109 6.60632 29.6834 6.60632C42.4559 6.60632 52.8101 17.0387 52.8101 29.9078C52.8101 42.7768 42.4559 53.2093 29.6834 53.2093Z" fill="white"/>
<path opacity="0.06" d="M0 29.9078C0 46.4288 13.2966 59.8259 29.6834 59.8259C40.0117 59.8259 49.1098 54.5101 54.4264 46.4391C20.9512 43.6941 12.1275 15.1178 10.318 7.23114C4.00523 12.7211 0 20.8433 0 29.9078Z" fill="#1A6FB5" fill-opacity="0.5"/>
<path d="M29.6835 29.959C26.9997 29.959 24.8243 27.7672 24.8243 25.0632C24.8243 22.3592 26.9997 20.1673 29.6835 20.1673C32.3672 20.1673 34.5426 22.3592 34.5426 25.0632C34.5426 27.7672 32.3773 29.959 29.6835 29.959ZM29.6835 32.407C32.9263 32.407 39.4017 34.0458 39.4017 37.3028V38.5319C39.4017 39.2079 38.8528 39.761 38.1819 39.761H21.1647C20.4938 39.761 19.9448 39.2079 19.9448 38.5319V37.3028C19.9652 34.056 26.4406 32.407 29.6835 32.407Z" fill="url(#paint2_linear)"/>
</g>
<defs>
<linearGradient id="paint0_linear" x1="86.3033" y1="84.3265" x2="38.0536" y2="40.7922" gradientUnits="userSpaceOnUse">
<stop stop-color="#67C3F3"/>
<stop offset="1" stop-color="#5A98F2"/>
</linearGradient>
<linearGradient id="paint1_linear" x1="41.9607" y1="2.11336" x2="19.1963" y2="52.9053" gradientUnits="userSpaceOnUse">
<stop stop-color="#67C3F3"/>
<stop offset="1" stop-color="#5A98F2"/>
</linearGradient>
<linearGradient id="paint2_linear" x1="36.7094" y1="28.3947" x2="19.0585" y2="36.9391" gradientUnits="userSpaceOnUse">
<stop stop-color="#B0F4FF"/>
<stop offset="0.071077" stop-color="#A6F1FF"/>
<stop offset="0.2937" stop-color="#8BE8FD"/>
<stop offset="0.5209" stop-color="#78E1FD"/>
<stop offset="0.7536" stop-color="#6DDDFC"/>
<stop offset="1" stop-color="#69DCFC"/>
</linearGradient>
<clipPath id="clip0">
<rect width="91.978" height="90" fill="white" transform="matrix(-1 0 0 1 91.978 0)"/>
</clipPath>
</defs>
</svg>
